HIERARCHY
ROOT Hips
{
	OFFSET 0.000000 0.000000 0.000000
	CHANNELS 6 Xposition Yposition Zposition Zrotation Yrotation Xrotation 
	JOINT LHipJoint
	{
		OFFSET 0.000000 0.000000 0.000000
		CHANNELS 3 Zrotation Yrotation Xrotation
		JOINT LeftUpLeg
		{
			OFFSET 1.363060 -1.794630 0.839290
			CHANNELS 3 Zrotation Yrotation Xrotation
			JOINT LeftLeg
			{
				OFFSET 2.448110 -6.726130 0.000000
				CHANNELS 3 Zrotation Yrotation Xrotation
				JOINT LeftFoot
				{
					OFFSET 2.562200 -7.039590 0.000000
					CHANNELS 3 Zrotation Yrotation Xrotation
					JOINT LeftToeBase
					{
						OFFSET 0.157640 -0.433110 2.322550
						CHANNELS 3 Zrotation Yrotation Xrotation
						End Site
						{
							OFFSET 0.000000 0.000000 0.000000
						}
					}
				}
			}
		}
	}
	JOINT RHipJoint
	{
		OFFSET 0.000000 0.000000 0.000000
		CHANNELS 3 Zrotation Yrotation Xrotation
		JOINT RightUpLeg
		{
			OFFSET -1.305520 -1.794630 0.839290
			CHANNELS 3 Zrotation Yrotation Xrotation
			JOINT RightLeg
			{
				OFFSET -2.542530 -6.985550 0.000000
				CHANNELS 3 Zrotation Yrotation Xrotation
				JOINT RightFoot
				{
					OFFSET -2.568260 -7.056230 0.000000
					CHANNELS 3 Zrotation Yrotation Xrotation
					JOINT RightToeBase
					{
						OFFSET -0.164730 -0.452590 2.363150
						CHANNELS 3 Zrotation Yrotation Xrotation
						End Site
						{
							OFFSET 0.000000 0.000000 0.000000
						}
					}
				}
			}
		}
	}
}
MOTION
Frames: 30
Frame Time: 0.008333
-1.852298 17.278843 -0.636382 -171.006039 -76.248259 -169.447715 -10.620524 -0.396780 -3.177397 -4.702785 14.968406 -20.857287 -2.309844 -0.449147 4.300370 1.471845 9.581363 -1.430962 1.164399 -0.000000 -43.098400 8.639437 0.210190 -0.065585 9.431901 5.394154 -19.876707 2.892575 0.881642 4.229292 -0.331300 -1.984522 0.509824 -0.843100 -0.000000 -60.720900
-1.851537 17.277777 -0.669313 -171.225318 -76.226787 -169.596564 -10.627744 -0.376843 -3.159458 -4.469879 14.840913 -20.646663 -2.264794 -0.392671 4.859393 1.512134 9.840764 -1.498734 1.178600 0.000000 -43.295800 8.631844 0.190859 -0.082508 9.508360 5.454853 -19.525089 2.875268 0.848625 4.519816 -0.355100 -2.046060 0.244470 -0.832900 0.000000 -60.500700
-1.851421 17.276667 -0.703287 -171.499513 -76.211578 -169.701725 -10.635229 -0.353416 -3.137714 -4.249200 14.712974 -20.444985 -2.222718 -0.335254 5.451319 1.549295 10.078563 -1.576664 1.187500 0.000000 -43.541900 8.626465 0.169455 -0.099387 9.579084 5.489668 -19.175264 2.858320 0.813384 4.828349 -0.376242 -2.088116 -0.027895 -0.818100 0.000000 -60.287800
-1.851654 17.275559 -0.738175 -171.826033 -76.200893 -169.771820 -10.642969 -0.327168 -3.115038 -4.037816 14.588173 -20.246404 -2.183298 -0.276123 6.078494 1.583229 10.294747 -1.664392 1.191000 0.000000 -43.842300 8.623509 0.146705 -0.118516 9.644295 5.498784 -18.817622 2.841547 0.775951 5.149847 -0.394725 -2.111766 -0.304739 -0.799100 0.000000 -60.075500
-1.852303 17.274475 -0.773954 -172.206337 -76.194355 -169.801943 -10.650634 -0.298290 -3.090873 -3.835988 14.459147 -20.052573 -2.145414 -0.215079 6.743763 1.615429 10.499555 -1.759838 1.190700 -0.000000 -44.188000 8.622857 0.122916 -0.139158 9.701357 5.487710 -18.452666 2.824298 0.736644 5.481447 -0.411396 -2.122412 -0.584998 -0.777200 -0.000000 -59.861900
-1.853394 17.273384 -0.810627 -172.644616 -76.192519 -169.777263 -10.657349 -0.267079 -3.060796 -3.646416 14.308769 -19.878782 -2.107445 -0.152231 7.454939 1.648605 10.709802 -1.861986 1.189201 -0.000000 -44.547200 8.623645 0.098013 -0.156210 9.746441 5.470687 -18.094931 2.805463 0.696149 5.823222 -0.428308 -2.132040 -0.868923 -0.754600 0.000001 -59.657800
-1.854708 17.272316 -0.847936 -173.129318 -76.194472 -169.717751 -10.663312 -0.234333 -3.028904 -3.462575 14.135878 -19.710751 -2.067364 -0.086067 8.212282 1.683569 10.933918 -1.956826 1.189800 0.000001 -44.930700 8.626113 0.073244 -0.174613 9.781560 5.446902 -17.724011 2.785006 0.654723 6.164595 -0.445685 -2.143273 -1.153529 -0.731800 -0.000000 -59.443300
-1.856376 17.271251 -0.885889 -173.659214 -76.201576 -169.609913 -10.667688 -0.200322 -2.989518 -3.287476 13.920488 -19.569487 -2.023304 -0.016499 9.026795 1.723045 11.188714 -2.038844 1.196200 0.000000 -45.303100 8.629061 0.048243 -0.188053 9.804257 5.432892 -17.358070 2.761901 0.613267 6.505995 -0.465994 -2.170541 -1.438703 -0.711200 -0.000000 -59.235999
-1.858067 17.270215 -0.924245 -174.228658 -76.213921 -169.468333 -10.670618 -0.165731 -2.946251 -3.116044 13.659380 -19.442276 -1.973279 0.057992 9.898959 1.767415 11.480304 -2.089511 1.212600 -0.000000 -45.686200 8.632969 0.024421 -0.202234 9.816566 5.423560 -16.978335 2.736465 0.571896 6.838293 -0.488864 -2.212370 -1.722948 -0.692300 -0.000001 -59.013000
-1.859836 17.269172 -0.962965 -174.834892 -76.232961 -169.284978 -10.671581 -0.130942 -2.894967 -2.950678 13.338572 -19.348177 -1.916101 0.137774 10.840048 1.817796 11.815395 -2.100447 1.242200 0.000000 -46.064500 8.637081 0.001585 -0.213169 9.817833 5.427797 -16.598825 2.708345 0.531297 7.161554 -0.515659 -2.276837 -2.005593 -0.676200 0.000001 -58.790200
-1.861443 17.268150 -1.001957 -175.479334 -76.259876 -169.060093 -10.670539 -0.096382 -2.836199 -2.791413 12.953964 -19.290154 -1.851034 0.223742 11.856165 1.873630 12.191883 -2.058541 1.288099 0.000000 -46.459200 8.641723 -0.019580 -0.222985 9.808634 5.441357 -16.216816 2.677889 0.491570 7.472546 -0.545858 -2.361343 -2.285048 -0.662500 -0.000000 -58.563000
-1.862875 17.267187 -1.041180 -176.164052 -76.295740 -168.788402 -10.667581 -0.062264 -2.769604 -2.639707 12.503578 -19.276093 -1.778142 0.316375 12.955094 1.933646 12.601902 -1.955447 1.352400 0.000001 -46.891500 8.647293 -0.038966 -0.232822 9.789034 5.458233 -15.833780 2.645625 0.452918 7.769865 -0.578631 -2.461234 -2.560559 -0.650300 0.000000 -58.332300
-1.863938 17.266319 -1.080613 -176.895389 -76.342104 -168.463447 -10.662785 -0.029003 -2.695312 -2.497872 11.988527 -19.315077 -1.698012 0.416036 14.144869 1.995912 13.032984 -1.785408 1.435800 0.000000 -47.388500 8.654365 -0.056236 -0.244105 9.758699 5.470222 -15.453329 2.612194 0.415351 8.053067 -0.612615 -2.569097 -2.830394 -0.638699 0.000000 -58.101099
-1.864504 17.265568 -1.120266 -177.682514 -76.399827 -168.074936 -10.656389 0.003055 -2.613607 -2.368451 11.413469 -19.417401 -1.611788 0.522879 15.434340 2.057958 13.468526 -1.546968 1.538100 0.000000 -47.982300 8.663680 -0.071319 -0.258085 9.716516 5.467667 -15.079125 2.578187 0.378874 8.322338 -0.646284 -2.676627 -3.093004 -0.626600 0.000000 -57.876101
-1.864472 17.264989 -1.160153 -178.533226 -76.470285 -167.614344 -10.648753 0.033459 -2.525319 -2.253943 10.784951 -19.591461 -1.520625 0.636795 16.830548 2.117340 13.891836 -1.241195 1.657500 0.000001 -48.691000 8.676054 -0.084206 -0.276538 9.661430 5.439407 -14.713510 2.544361 0.343486 8.577250 -0.677736 -2.773592 -3.346599 -0.613200 -0.000000 -57.658900
-1.863784 17.264639 -1.200221 -179.454650 -76.554184 -167.073241 -10.640379 0.061641 -2.431167 -2.156049 10.110752 -19.846609 -1.425483 0.757567 18.340219 2.171905 14.287714 -0.869749 1.792200 0.000001 -49.534100 8.692090 -0.094961 -0.300421 9.592350 5.376730 -14.359869 2.511261 0.309312 8.816991 -0.705487 -2.852454 -3.588830 -0.597800 -0.000000 -57.457100
-1.862382 17.264540 -1.240458 179.546677 -76.652318 -166.444183 -10.631818 0.086823 -2.332180 -2.075702 9.398500 -20.189704 -1.326871 0.884757 19.968082 2.220197 14.645096 -0.435181 1.940000 0.000000 -50.499900 8.712312 -0.103642 -0.330888 9.507976 5.271993 -14.019390 2.479335 0.276479 9.040320 -0.728261 -2.906665 -3.818232 -0.580100 0.000001 -57.271200
-1.860117 17.264727 -1.280699 178.469131 -76.765475 -165.725437 -10.623682 0.107829 -2.229309 -2.012332 8.655126 -20.627672 -1.224687 1.017872 21.717387 2.261536 14.957420 0.061771 2.099300 0.000000 -51.544700 8.736653 -0.110224 -0.368179 9.408616 5.123080 -13.693213 2.448746 0.245269 9.244520 -0.745698 -2.935437 -4.031654 -0.560800 0.000000 -57.112700
-1.856999 17.265193 -1.320843 177.307585 -76.894001 -164.911803 -10.616692 0.123561 -2.123637 -1.965944 7.885598 -21.161618 -1.117425 1.156013 23.582402 2.296927 15.230874 0.638057 2.274600 0.000001 -52.735300 8.765292 -0.114357 -0.413751 9.293338 4.925427 -13.380059 2.419839 0.215863 9.427989 -0.757126 -2.934730 -4.230574 -0.539500 0.000000 -56.964400
-1.852980 17.265898 -1.360586 176.071978 -77.038080 -164.010996 -10.611532 0.132316 -2.015877 -1.933104 7.095045 -21.795303 -1.004247 1.298174 25.562163 2.327168 15.466317 1.294121 2.465300 -0.000001 -53.907400 8.797177 -0.116206 -0.466396 9.164508 4.686479 -13.078749 2.392295 0.188804 9.586583 -0.763929 -2.913518 -4.411963 -0.517700 0.000000 -56.841500
-1.848036 17.266820 -1.399668 174.765758 -77.197677 -163.026586 -10.608821 0.132338 -1.907008 -1.911638 6.287155 -22.526750 -0.883274 1.442893 27.645009 2.354597 15.676353 2.051374 2.678400 -0.000000 -55.044400 8.831525 -0.115372 -0.526273 9.023416 4.411337 -12.786376 2.365912 0.164349 9.717918 -0.767081 -2.877339 -4.576128 -0.496200 -0.000000 -56.737900
-1.842250 17.267915 -1.437796 173.395839 -77.371845 -161.963757 -10.609058 0.121816 -1.797843 -1.898664 5.466242 -23.352565 -0.753295 1.588324 29.816708 2.381513 15.871262 2.928741 2.920000 0.000000 -56.059600 8.867185 -0.111674 -0.592830 8.872379 4.108313 -12.499745 2.340370 0.142877 9.819488 -0.768078 -2.834540 -4.723727 -0.475799 -0.000000 -56.648800
-1.835481 17.269119 -1.474621 171.969096 -77.559198 -160.831405 -10.612431 0.098653 -1.689851 -1.891218 4.637905 -24.266747 -0.613993 1.732514 32.060482 2.410036 16.058585 3.942485 3.195300 -0.000000 -56.850100 8.902879 -0.104657 -0.665686 8.713933 3.787946 -12.214140 2.315066 0.124530 9.888999 -0.768828 -2.796205 -4.854102 -0.457700 0.000001 -56.577000
-1.827947 17.270420 -1.509893 170.489961 -77.757353 -159.630473 -10.618904 0.060976 -1.583357 -1.888388 3.807968 -25.264467 -0.465482 1.872778 34.351657 2.443131 16.250548 5.119886 3.513800 -0.000000 -57.491100 8.937577 -0.094049 -0.744179 8.549380 3.457028 -11.930798 2.289909 0.109375 9.928842 -0.770169 -2.765918 -4.971018 -0.441900 0.000000 -56.506500
-1.819496 17.271771 -1.543359 168.964991 -77.963615 -158.370670 -10.628011 0.007183 -1.480571 -1.888258 2.986769 -26.337107 -0.310864 2.007317 36.673970 2.480699 16.436410 6.448558 3.869400 -0.000000 -57.754300 8.970080 -0.079959 -0.827371 8.381429 3.126609 -11.644288 2.264233 0.097326 9.937575 -0.773850 -2.754127 -5.072817 -0.429300 0.000000 -56.445400
-1.810269 17.273172 -1.574834 167.398779 -78.173841 -157.055070 -10.639025 -0.063963 -1.382734 -1.890432 2.184537 -27.478952 -0.153417 2.134247 39.004640 2.523373 16.611326 7.925464 4.259500 -0.000001 -57.685600 8.999546 -0.062379 -0.914289 8.211417 2.803157 -11.356127 2.237894 0.088252 9.917501 -0.780381 -2.763391 -5.160356 -0.420000 -0.000000 -56.390100
-1.800353 17.274628 -1.604246 165.797750 -78.384117 -155.689886 -10.651034 -0.152793 -1.291501 -1.895608 1.413819 -28.684073 0.002239 2.252612 41.326566 2.569663 16.757593 9.520448 4.670000 0.000000 -57.253100 9.025483 -0.041997 -1.003512 8.040385 2.491651 -11.067189 2.210807 0.081794 9.871730 -0.789954 -2.794617 -5.233803 -0.414000 0.000000 -56.340400
-1.789961 17.276191 -1.631488 164.171666 -78.589192 -154.281007 -10.663058 -0.259112 -1.207703 -1.904157 0.686588 -29.952216 0.151799 2.362308 43.624290 2.618148 16.860854 11.199116 5.085400 0.000000 -56.548600 9.047396 -0.019341 -1.093239 7.870122 2.194110 -10.785436 2.183434 0.077792 9.805242 -0.801856 -2.843304 -5.294098 -0.410700 0.000000 -56.293600
-1.778997 17.277865 -1.656615 162.528251 -78.784587 -152.839308 -10.674029 -0.381660 -1.133496 -1.917703 0.015398 -31.278420 0.291196 2.464552 45.887256 2.665257 16.897310 12.904316 5.479800 -0.000000 -55.625999 9.065525 0.004837 -1.182187 7.700993 1.911855 -10.512832 2.155918 0.075706 9.720941 -0.815373 -2.905721 -5.339525 -0.410000 -0.000000 -56.255800
-1.767708 17.279712 -1.679613 160.881925 -78.965624 -151.375482 -10.683159 -0.518353 -1.069709 -1.937943 -0.589294 -32.663865 0.418039 2.561403 48.108951 2.707802 16.849952 14.576888 5.828400 0.000000 -54.595700 9.080126 0.029596 -1.268444 7.533769 1.643271 -10.257431 2.128922 0.075318 9.623532 -0.829060 -2.973539 -5.369891 -0.411200 0.000000 -56.228000
